HIERARCHY
ROOT joint_Root
{
	OFFSET 0.0 0.0 0.0
	CHANNELS 6 Xposition Yposition Zposition Zrotation Xrotation Yrotation 
	JOINT Hips
	{
		OFFSET 4.5925 91.4895 -427.239
		CHANNELS 6 Xposition Yposition Zposition Zrotation Xrotation Yrotation 
		JOINT Spine
		{
			OFFSET 15.7357 0.0 0.0
			CHANNELS 6 Xposition Yposition Zposition Zrotation Xrotation Yrotation 
			JOINT Chest
			{
				OFFSET 8.98455 -0.406207 0.0
				CHANNELS 6 Xposition Yposition Zposition Zrotation Xrotation Yrotation 
				JOINT Neck
				{
					OFFSET 16.3773 0.0 0.0
					CHANNELS 6 Xposition Yposition Zposition Zrotation Xrotation Yrotation 
					JOINT Head
					{
						OFFSET 6.45672 0.0 0.0
						CHANNELS 6 Xposition Yposition Zposition Zrotation Xrotation Yrotation 
						End Site
						{
							OFFSET 0.0 0.0 0.0
						}
					}
				}
				JOINT Shoulder_L
				{
					OFFSET 12.9942 -0.242716 4.98039
					CHANNELS 6 Xposition Yposition Zposition Zrotation Xrotation Yrotation 
					JOINT UpperArm_L
					{
						OFFSET 5.34809 0.0 0.0
						CHANNELS 6 Xposition Yposition Zposition Zrotation Xrotation Yrotation 
						JOINT LowerArm_L
						{
							OFFSET 24.3286 1.87007e-05 0.0
							CHANNELS 6 Xposition Yposition Zposition Zrotation Xrotation Yrotation 
							JOINT Hand_L
							{
								OFFSET 22.2916 0.0 0.0
								CHANNELS 6 Xposition Yposition Zposition Zrotation Xrotation Yrotation 
								End Site
								{
									OFFSET 0.0 0.0 0.0
								}
							}
						}
					}
				}
				JOINT Shoulder_R
				{
					OFFSET 12.9945 -0.242716 -4.98039
					CHANNELS 6 Xposition Yposition Zposition Zrotation Xrotation Yrotation 
					JOINT UpperArm_R
					{
						OFFSET -5.34813 0.0 0.0
						CHANNELS 6 Xposition Yposition Zposition Zrotation Xrotation Yrotation 
						JOINT LowerArm_R
						{
							OFFSET -24.3289 0.000322201 0.0
							CHANNELS 6 Xposition Yposition Zposition Zrotation Xrotation Yrotation 
							JOINT Hand_R
							{
								OFFSET -22.2915 -0.000108084 0.0
								CHANNELS 6 Xposition Yposition Zposition Zrotation Xrotation Yrotation 
								End Site
								{
									OFFSET 0.0 0.0 0.0
								}
							}
						}
					}
				}
			}
		}
		JOINT UpperLeg_L
		{
			OFFSET -2.19248 -6.46944 0.0
			CHANNELS 6 Xposition Yposition Zposition Zrotation Xrotation Yrotation 
			JOINT LowerLeg_L
			{
				OFFSET 39.0811 0.0 -1.23785e-05
				CHANNELS 6 Xposition Yposition Zposition Zrotation Xrotation Yrotation 
				JOINT Foot_L
				{
					OFFSET 40.9854 0.0 -1.26872e-05
					CHANNELS 6 Xposition Yposition Zposition Zrotation Xrotation Yrotation 
					JOINT Toes_L
					{
						OFFSET 11.7543 0.0 0.0
						CHANNELS 6 Xposition Yposition Zposition Zrotation Xrotation Yrotation 
						End Site
						{
							OFFSET 0.0 0.0 0.0
						}
					}
				}
			}
		}
		JOINT UpperLeg_R
		{
			OFFSET -2.19251 6.46944 0.0
			CHANNELS 6 Xposition Yposition Zposition Zrotation Xrotation Yrotation 
			JOINT LowerLeg_R
			{
				OFFSET -39.0811 -0.00228153 -0.0401928
				CHANNELS 6 Xposition Yposition Zposition Zrotation Xrotation Yrotation 
				JOINT Foot_R
				{
					OFFSET -40.9854 0.0 0.0
					CHANNELS 6 Xposition Yposition Zposition Zrotation Xrotation Yrotation 
					JOINT Toes_R
					{
						OFFSET -11.7543 0.0 0.0
						CHANNELS 6 Xposition Yposition Zposition Zrotation Xrotation Yrotation 
						End Site
						{
							OFFSET 0.0 0.0 0.0
						}
					}
				}
			}
		}
	}
}
MOTION
Frames:	4
Frame Time:	0.0333333
0.000000 0.000000 0.000000 0.000000 0.000000 -0.000000 -1.662900 90.513000 0.115582 90.027600 -3.232220 10.815000 15.735700 0.000005 -0.000001 87.937700 82.231900 -87.981200 8.984550 -0.406207 -0.000000 7.760140 -0.556812 -0.049191 16.377300 -0.000001 -0.000001 6.305430 -2.704270 1.831560 6.456720 -0.000001 -0.000000 -2.495980 -1.766900 1.878910 12.994200 -0.242716 4.980390 -92.015000 6.979110 -73.851700 5.348090 -0.000007 -0.000001 -60.570300 40.750100 -16.642600 24.328600 0.000019 0.000005 8.400300 23.796000 -20.102300 22.291600 -0.000001 0.000005 9.362350 5.312440 -0.279667 12.994500 -0.242716 -4.980390 88.375200 11.833900 -82.124900 -5.348130 -0.000001 -0.000004 -62.439500 31.676400 -9.844490 -24.328900 0.000322 -0.000009 1.999480 6.668570 -16.741000 -22.291500 -0.000108 -0.000004 13.435500 5.388620 -2.571060 -2.192480 -6.469440 -0.000000 -173.951000 -13.143500 1.880780 39.081100 -0.000007 -0.000012 -0.211993 0.352702 31.008500 40.985400 -0.000006 -0.000013 -0.558069 5.165520 -71.525200 11.754300 -0.000000 0.000003 -0.000175 -0.001651 -16.640100 -2.192510 6.469440 -0.000001 173.031000 21.594200 -176.720000 -39.081100 -0.002282 -0.040193 -0.231004 0.392071 30.863100 -40.985400 0.000008 0.000006 2.702930 10.411200 -72.484200 -11.754300 -0.000006 -0.000006 -0.002033 -0.029131 -17.757700
0.000000 0.000000 0.000000 0.000000 0.000000 -0.000000 -1.566300 90.529900 0.037054 89.991600 -3.427090 10.764200 15.735700 0.000005 -0.000001 87.949500 82.360100 -88.026600 8.984550 -0.406207 -0.000000 7.503830 -0.544434 -0.118310 16.377300 -0.000001 -0.000001 6.612400 -2.644740 1.798660 6.456720 -0.000001 -0.000000 -1.927340 -1.755050 1.641700 12.994200 -0.242716 4.980390 -91.997500 6.889780 -73.788900 5.348090 -0.000007 -0.000001 -60.716300 40.654900 -16.442500 24.328600 0.000019 0.000005 8.443930 23.885300 -20.134300 22.291600 -0.000001 0.000005 9.309140 5.313760 -0.316906 12.994500 -0.242716 -4.980390 88.382500 11.759500 -82.111300 -5.348130 -0.000001 -0.000004 -62.234800 31.243100 -9.849240 -24.328900 0.000322 -0.000009 1.991070 6.640230 -16.741400 -22.291500 -0.000108 -0.000004 13.326900 5.388730 -2.574620 -2.192480 -6.469440 -0.000000 -173.999000 -13.260000 1.803440 39.081100 -0.000007 -0.000012 -0.209355 0.348485 30.996000 40.985400 -0.000006 -0.000013 -0.511596 5.043450 -71.491000 11.754300 -0.000000 0.000003 -0.000188 -0.001755 -16.643900 -2.192510 6.469440 -0.000001 173.057000 21.531000 -176.853000 -39.081100 -0.002282 -0.040193 -0.227852 0.387358 30.826500 -40.985400 0.000008 0.000006 2.687110 10.553800 -72.367600 -11.754300 -0.000006 -0.000006 -0.002155 -0.030640 -17.819000
0.000000 0.000000 0.000000 0.000000 0.000000 -0.000000 -1.477560 90.548500 -0.035467 89.945200 -3.613080 10.746800 15.735700 0.000005 -0.000001 88.008400 82.499600 -88.125300 8.984550 -0.406207 -0.000000 7.225340 -0.518896 -0.200912 16.377300 -0.000001 -0.000001 6.899340 -2.556210 1.728670 6.456720 -0.000001 -0.000000 -1.395870 -1.742140 1.431640 12.994200 -0.242716 4.980390 -91.965900 6.759450 -73.742200 5.348090 -0.000007 -0.000001 -60.814000 40.830400 -16.292000 24.328600 0.000019 0.000005 8.395570 23.722300 -20.145800 22.291600 -0.000001 0.000005 9.287700 5.314320 -0.333013 12.994500 -0.242716 -4.980390 88.396900 11.687300 -82.133800 -5.348130 -0.000001 -0.000004 -62.166300 30.643300 -9.716740 -24.328900 0.000322 -0.000009 1.976480 6.504910 -16.950000 -22.291500 -0.000108 -0.000004 13.268000 5.392230 -2.687600 -2.192480 -6.469440 -0.000000 -173.998000 -13.415400 1.770330 39.081100 -0.000007 -0.000012 -0.206247 0.343604 30.974500 40.985400 -0.000006 -0.000013 -0.459483 4.992360 -71.451100 11.754300 -0.000000 0.000003 -0.000181 -0.001704 -16.642000 -2.192510 6.469440 -0.000001 173.047000 21.572700 -176.920000 -39.081100 -0.002282 -0.040193 -0.225655 0.384567 30.768200 -40.985400 0.000008 0.000006 2.696250 10.775300 -72.250200 -11.754300 -0.000006 -0.000006 -0.002038 -0.029197 -17.760300
0.000000 0.000000 0.000000 0.000000 0.000000 -0.000000 -1.380060 90.567400 -0.099729 89.905400 -3.768580 10.734600 15.735700 0.000005 -0.000001 88.127200 82.635300 -88.278100 8.984550 -0.406207 -0.000000 6.955130 -0.478676 -0.272338 16.377300 -0.000001 -0.000001 7.158440 -2.466190 1.620230 6.456720 -0.000001 -0.000000 -0.973067 -1.741600 1.156230 12.994200 -0.242716 4.980390 -91.926300 6.611530 -73.716100 5.348090 -0.000007 -0.000001 -61.124800 40.811400 -16.075500 24.328600 0.000019 0.000005 8.375750 23.617200 -20.178900 22.291600 -0.000001 0.000005 9.267900 5.315650 -0.371068 12.994500 -0.242716 -4.980390 88.412200 11.567300 -82.129200 -5.348130 -0.000001 -0.000004 -62.411000 28.791100 -9.453210 -24.328900 0.000322 -0.000009 1.993420 6.388180 -17.379400 -22.291500 -0.000108 -0.000004 13.052700 5.399840 -2.932560 -2.192480 -6.469440 -0.000000 -174.015000 -13.555600 1.756060 39.081100 -0.000007 -0.000012 -0.202552 0.337898 30.940800 40.985400 -0.000006 -0.000013 -0.403540 4.926550 -71.416100 11.754300 -0.000000 0.000003 -0.000170 -0.001611 -16.638600 -2.192510 6.469440 -0.000001 173.011000 21.628900 -176.951000 -39.081100 -0.002282 -0.040193 -0.223462 0.382000 30.694500 -40.985400 0.000008 0.000006 2.700550 11.020300 -72.141400 -11.754300 -0.000006 -0.000006 -0.002166 -0.030771 -17.824300
